# xmcd
#
# Track frame offsets:
#	150
#	20594
#	32762
#	48606
#	69307
#	86751
#	107179
#	123774
#	141216
#	161230
#	175114
#
# Disc length: 2564 seconds
#
# Revision: 0
# Processed by: cddbd v1.5.2PL0 Copyright (c) Steve Scherf et al.
# Submitted via: EasyCDDAExtractor 2010.6.0.0
#
DISCID=950a020b
DTITLE="Sir" Oliver Mally - Strong Believer
DYEAR=2012
DGENRE=Blues
TTITLE0=Down With The Blues
TTITLE1=I Got My Mind Made Up
TTITLE2=Sweet and Fine
TTITLE3=You Must Be Crazy
TTITLE4=Keep On Rolling With The Punches
TTITLE5=Devil´s Child
TTITLE6=Girl From The North Country
TTITLE7=Crazy ´Bout That Music
TTITLE8=Meet Me On The Riverbank
TTITLE9=She´s My Downfall
TTITLE10=Strong Believer
EXTD=
EXTT0=
EXTT1=
EXTT2=
EXTT3=
EXTT4=
EXTT5=
EXTT6=
EXTT7=
EXTT8=
EXTT9=
EXTT10=
PLAYORDER=
